<svg xmlns="http://www.w3.org/2000/svg" id="Layer_1" data-name="Layer 1" viewBox="0 0 477.44 137.32"><defs><style>.cls-1{fill:#FFFFFF;}</style></defs><path class="cls-1" d="M332.09,348.73c-14.68,0-29.36-.2-44,.07a19,19,0,0,1-18.93-15,20.33,20.33,0,0,1,9.38-22.24,15.6,15.6,0,0,1,7.65-2.14c5,0,9.92,0,14.88,0,25.12,0,50.24.16,75.35-.07a19.18,19.18,0,0,1,19.36,19.45c-.08,8.25-3.52,14.53-11,18.35a16.06,16.06,0,0,1-7.43,1.61Zm.16-24h-13.8q-15.58,0-31.18,0a4,4,0,0,0-3.87,2.12,4.32,4.32,0,0,0,3.93,6.53h68.25c7.16,0,14.31,0,21.47,0a5.39,5.39,0,0,0,2.79-.81,4.25,4.25,0,0,0,1.48-4.91,4,4,0,0,0-4.09-2.88Z" transform="translate(-47.28 -231.93)"></path><path class="cls-1" d="M399.26,309.4h2.9c6,0,12,0,18,0a1.41,1.41,0,0,1,1.56,1.05q7.75,19.08,15.58,38.11c.16.39.36.76.66,1.39.92-2.42,1.77-4.6,2.6-6.78q4.35-11.46,8.68-22.94a1.24,1.24,0,0,1,1.37-1q12,0,24.11,0a1.3,1.3,0,0,1,1.42.92q5.7,13.24,11.48,26.46l.9,2a7.79,7.79,0,0,0,.51-.88q7.68-18.57,15.33-37.17a1.65,1.65,0,0,1,1.83-1.23c5.71.05,11.43,0,17.15,0h1.38c-.34.83-.6,1.53-.9,2.21q-12.32,27.86-24.6,55.73a1.79,1.79,0,0,1-2,1.26c-6-.05-11.92,0-17.87,0a1.41,1.41,0,0,1-1.58-1q-6.31-16.21-12.71-32.41c-.23-.57-.49-1.45-.9-1.56a7.38,7.38,0,0,0-2.85,0c-.26,0-.5.65-.65,1q-5.15,13.79-10.26,27.59c-.69,1.87-1.36,3.75-2.12,5.59a1.47,1.47,0,0,1-1.08.77c-6.88,0-13.76,0-20.64.06-.89,0-1.06-.53-1.32-1.1L414.8,344.13l-15-33.52C399.61,310.25,399.47,309.89,399.26,309.4Z" transform="translate(-47.28 -231.93)"></path><path class="cls-1" d="M182.69,294.31c-8.48-.17-16.86-.82-25.05-3.13a34.81,34.81,0,0,1-15.12-8.45,23.5,23.5,0,0,1-7-14.86,38.91,38.91,0,0,1,.62-13.56c2.11-8.37,7.72-13.66,15.28-17.2a49.81,49.81,0,0,1,17.23-4.29c6.17-.5,12.37-.75,18.56-.69,8.25.09,16.43,1,24.23,4,6.12,2.31,11.4,5.79,14.93,11.47a24.15,24.15,0,0,1,3.69,12.24c.11,4.38.18,8.76-1.21,13-2.7,8.31-8.68,13.36-16.42,16.68a54.09,54.09,0,0,1-15.67,3.79C192.11,293.82,187.39,294,182.69,294.31Zm-.05-47.69c-6.7,0-12,.76-16.25,2.45-8.09,3.18-10.56,9-9.35,16.5,1,6.08,5,9.76,10.74,11.74a41.74,41.74,0,0,0,11.51,2c6.43.34,12.78-.05,18.91-2.23,7.77-2.77,11.7-9.37,10.25-17.39-.95-5.22-4.37-8.49-9.13-10.41C194,247.16,188.35,246.6,182.64,246.62Z" transform="translate(-47.28 -231.93)"></path><path class="cls-1" d="M127.82,251.86H126.5c-6.24,0-12.48,0-18.72,0-.81,0-1.25-.14-1.52-1a5.79,5.79,0,0,0-3.7-3.85,32.77,32.77,0,0,0-7.5-1.9,71.69,71.69,0,0,0-20,.39,26.85,26.85,0,0,0-3.8,1.07,3,3,0,0,0-2,3c-.06,1.42.33,2.78,1.74,3.25A28.8,28.8,0,0,0,78,254.5c6.13.38,12.29.39,18.44.59,6.88.22,13.74.65,20.39,2.59,3.81,1.11,7.35,2.72,10,5.85,2.85,3.37,3.29,7.39,3.12,11.6-.31,8-5,12.62-12,15.33a49.63,49.63,0,0,1-15.45,3.11c-6.66.34-13.34.51-20,.44a65,65,0,0,1-22-3.73,20.45,20.45,0,0,1-11.13-9.17,17.82,17.82,0,0,1-2-9.26c.47,0,.82-.07,1.17-.07,6.36,0,12.71,0,19.07,0,.9,0,1.21.24,1.35,1.17a7.61,7.61,0,0,0,5.34,6.49A28.76,28.76,0,0,0,81.89,281c6.47.29,13,.59,19.38-.62a20.85,20.85,0,0,0,4.73-1.57,4.19,4.19,0,0,0,2.44-4.64,3.86,3.86,0,0,0-3.23-3.55,49.65,49.65,0,0,0-7.87-1.43c-5.54-.35-11.1-.38-16.65-.56-7.25-.23-14.46-.74-21.32-3.35-3.89-1.48-7.4-3.56-9.45-7.35-3.12-5.75-3-15.87,6-20.83A39.72,39.72,0,0,1,69.73,233c9.5-1.35,19.06-1.17,28.6-.64a53.9,53.9,0,0,1,18.45,3.81c4.43,1.89,8.06,4.74,10,9.29A13.94,13.94,0,0,1,127.82,251.86Z" transform="translate(-47.28 -231.93)"></path><path class="cls-1" d="M326.5,256.43h-2.93c-5.84,0-11.68,0-17.52,0a1.47,1.47,0,0,1-1.58-1,11.9,11.9,0,0,0-7.06-6.29,52.06,52.06,0,0,0-9.76-2.3,49.5,49.5,0,0,0-19.27,1.06,15.69,15.69,0,0,0-9,5.75c-4.09,5.58-3.42,13.86,1.53,19.32a18,18,0,0,0,9.77,5.26,48.34,48.34,0,0,0,23.48-.42c4.74-1.27,8.67-3.69,10.6-8.53a1.07,1.07,0,0,1,.79-.52c7,0,13.92,0,20.87,0,0,0,.07,0,.21.16a15.58,15.58,0,0,1-2.47,9.55c-4,6.36-10,10.1-17,12.25a69.2,69.2,0,0,1-19.46,3.13c-5.71.06-11.44.13-17.12-.3-8.11-.6-16-2.28-22.94-6.88-7.52-5-11.69-11.94-12.26-21-.3-4.8-.28-9.61,1.57-14.15a26.88,26.88,0,0,1,16.37-15.66,62.51,62.51,0,0,1,19.44-3.82c5.78-.17,11.59-.23,17.37,0a60.92,60.92,0,0,1,22.68,5,26.08,26.08,0,0,1,11.38,9.8A15,15,0,0,1,326.5,256.43Z" transform="translate(-47.28 -231.93)"></path><path class="cls-1" d="M395.69,354.43v14.82H242.88V309.47h18.73v1.43c0,14,0,28,0,42,0,1.26.36,1.51,1.54,1.51q65.4,0,130.78,0Z" transform="translate(-47.28 -231.93)"></path><path class="cls-1" d="M70,349.39v19.86H49.65V309.5c.3,0,.6-.09.9-.09,17.2,0,34.4-.05,51.59.08a39.86,39.86,0,0,1,17,3.51c6.61,3.14,9.86,8.41,9.94,15.72.06,4.43-.7,8.59-3.58,12.13-2.69,3.32-6.32,5.18-10.32,6.43A55.26,55.26,0,0,1,99,349.37c-9.24.07-18.48,0-27.71,0Zm.06-13.64a3,3,0,0,0,.47.09c9.88,0,19.76,0,29.63-.09a11.84,11.84,0,0,0,4.28-1c2.38-1,3.31-3,3.25-5.48s-1.08-4.36-3.4-5.14a18.57,18.57,0,0,0-5.72-1c-9.11-.1-18.23-.05-27.35,0-.38,0-.76,0-1.16.05Z" transform="translate(-47.28 -231.93)"></path><path class="cls-1" d="M359.74,292.81c.6-1.13,1.18-2.21,1.76-3.28q14.75-27.42,29.48-54.85a1.61,1.61,0,0,1,1.64-1q14.16,0,28.32,0a1.53,1.53,0,0,1,1.57.94q10,18.63,20,37.23l10.67,19.83c.18.34.35.7.59,1.18-.44,0-.77.06-1.11.06-6,0-11.92,0-17.88,0a1.47,1.47,0,0,1-1.56-.93c-1.51-3-3.1-5.95-4.6-8.95a1.5,1.5,0,0,0-1.55-1q-20.34,0-40.68,0a1.39,1.39,0,0,0-1.47.89c-1.52,3-3.08,6-4.68,9a1.75,1.75,0,0,1-1.2.86c-6.28.06-12.56,0-18.84,0A3.18,3.18,0,0,1,359.74,292.81ZM421,268.67c0-.16.07-.21.06-.23q-5.42-10.47-10.86-20.92a1.42,1.42,0,0,0-1-.55c-1.47-.06-3,0-4.43-.05a1.54,1.54,0,0,0-1.65,1c-3.43,6.67-6.9,13.31-10.35,20a8.15,8.15,0,0,0-.28.77Z" transform="translate(-47.28 -231.93)"></path><path class="cls-1" d="M166.66,309.46H187.1V354.4h45.35v14.82H166.66Z" transform="translate(-47.28 -231.93)"></path><path class="cls-1" d="M458.92,233.17h20.37v44.88h45.42v14.84H458.92Z" transform="translate(-47.28 -231.93)"></path><path class="cls-1" d="M156.33,369.18H136.07V309.53h20.26Z" transform="translate(-47.28 -231.93)"></path><path class="cls-1" d="M334.36,292.84V233.27h20.27v59.57Z" transform="translate(-47.28 -231.93)"></path></svg>