<svg xmlns="http://www.w3.org/2000/svg" id="Layer_1" data-name="Layer 1" viewBox="0 0 13.01 8.35"><defs><style>.cls-1{fill:#7115ff;}</style></defs><g id="Layer_1-2" data-name="Layer 1-2"><polygon class="cls-1" points="13.01 2.8 13.01 3.58 0 3.58 0 0 0.78 0 0.78 2.8 13.01 2.8"></polygon><path class="cls-1" d="M12.91,4.61a.42.42,0,0,1,.42.43.43.43,0,0,1-.42.43H3.82A.43.43,0,0,1,3.4,5a.42.42,0,0,1,.42-.43h9.09m0-.79H3.82a1.22,1.22,0,0,0,0,2.43h9.09a1.22,1.22,0,0,0,0-2.43Z" transform="translate(-1.49 -3.82)"></path><path class="cls-1" d="M12.58,6.06v0c0,.11-.08.17-.25.17h0c-.17,0-.26-.06-.26-.17v0s0,0,0,0,0,0,0,0l0,0,.08,0h.22l.08,0s0,0,0,0l0,0v0Zm-.06,0h0V6l0,0-.06,0h-.2l-.07,0,0,0s0,0,0,.06h0s0,0,0,.06l0,0,.07,0h.2l.06,0,0,0a.13.13,0,0,0,0-.06Zm-.13,0h.09v0l0,0h-.19l-.05,0,0,0s0,0,0,0v0h0V6a0,0,0,0,0,0,0l0,0,0,0h.19a.05.05,0,0,1,0,0l0,0s0,0,0,0v0h-.09s0,0-.07,0h-.06s0,0,0,0h0a.06.06,0,0,0,0,0h.06s.06,0,.07,0Z" transform="translate(-1.49 -3.82)"></path><path class="cls-1" d="M2.54,10.12a2.17,2.17,0,0,1-.47,0,1.16,1.16,0,0,1-.3-.1.66.66,0,0,1-.18-.14.48.48,0,0,1-.08-.16.59.59,0,0,1,0-.14v0h.59c0,.17.14.25.48.25h.36l.16,0,.07-.05a.15.15,0,0,0,0-.07.11.11,0,0,0,0-.08A.31.31,0,0,0,3,9.46l-.31,0h-.3c-.58,0-.87-.17-.87-.48v0a.77.77,0,0,1,0-.15.44.44,0,0,1,.09-.13.56.56,0,0,1,.17-.11,1.2,1.2,0,0,1,.28-.08,2.46,2.46,0,0,1,.41,0h.16a2.85,2.85,0,0,1,.44,0,1.3,1.3,0,0,1,.29.08.52.52,0,0,1,.19.12.55.55,0,0,1,.09.14.4.4,0,0,1,0,.15V9H3.11s0,0,0,0l0,0L3,8.83l-.15,0-.21,0H2.54a1,1,0,0,0-.29,0c-.07,0-.12,0-.13,0a.08.08,0,0,0,0,.07.07.07,0,0,0,0,.06.23.23,0,0,0,.12,0,1.45,1.45,0,0,0,.27,0h.3a1.86,1.86,0,0,1,.71.12.39.39,0,0,1,.23.37v0a.41.41,0,0,1,0,.16.34.34,0,0,1-.08.14.59.59,0,0,1-.18.13,1.53,1.53,0,0,1-.31.08,3,3,0,0,1-.45,0Z" transform="translate(-1.49 -3.82)"></path><path class="cls-1" d="M5.22,8.43a2.81,2.81,0,0,1,.43,0A1.73,1.73,0,0,1,6,8.54a.84.84,0,0,1,.23.12,1,1,0,0,1,.15.14A1.09,1.09,0,0,1,6.42,9a.65.65,0,0,1,0,.15c0,.05,0,.09,0,.14v.07s0,.09,0,.13a.44.44,0,0,1,0,.15.8.8,0,0,1-.08.16,1,1,0,0,1-.15.14A.84.84,0,0,1,6,10a1.16,1.16,0,0,1-.31.08,2.81,2.81,0,0,1-.43,0H5.15a2.81,2.81,0,0,1-.43,0A1.16,1.16,0,0,1,4.41,10a.84.84,0,0,1-.23-.12A1,1,0,0,1,4,9.75l-.09-.16a.83.83,0,0,1,0-.15s0-.09,0-.13V9.24c0-.05,0-.09,0-.14s0-.09,0-.15A1.19,1.19,0,0,1,4,8.8a1,1,0,0,1,.15-.14.78.78,0,0,1,.22-.12l.32-.08a2.81,2.81,0,0,1,.43,0Zm.67.83a.45.45,0,0,0,0-.12A.41.41,0,0,0,5.81,9a.43.43,0,0,0-.12-.11.76.76,0,0,0-.21-.06,1,1,0,0,0-.25,0H5.16c-.46,0-.68.15-.68.43v0a.4.4,0,0,0,0,.15.33.33,0,0,0,.1.14.42.42,0,0,0,.22.11,1.63,1.63,0,0,0,.34.05h0l.31,0a.7.7,0,0,0,.23-.11.53.53,0,0,0,.1-.14.4.4,0,0,0,0-.15v0Z" transform="translate(-1.49 -3.82)"></path><path class="cls-1" d="M7.81,10.12a2.38,2.38,0,0,1-.39,0,1.6,1.6,0,0,1-.3-.08.72.72,0,0,1-.21-.12.71.71,0,0,1-.15-.15l-.09-.15a.56.56,0,0,1,0-.15.66.66,0,0,1,0-.14V9.24a.65.65,0,0,1,0-.2.47.47,0,0,1,.1-.22.89.89,0,0,1,.19-.2,1.33,1.33,0,0,1,.35-.14,2.73,2.73,0,0,1,.53-.05h.1a2,2,0,0,1,.52.05,1.09,1.09,0,0,1,.35.12.64.64,0,0,1,.2.16.44.44,0,0,1,.1.17.39.39,0,0,1,0,.14v0h-.6a.08.08,0,0,0,0,0s0,0-.05-.07L8.33,8.9a.56.56,0,0,0-.19-.05,1.14,1.14,0,0,0-.28,0,1.06,1.06,0,0,0-.33,0,.42.42,0,0,0-.2.1.38.38,0,0,0-.1.13.41.41,0,0,0,0,.16v0a.41.41,0,0,0,0,.16.67.67,0,0,0,.11.14.42.42,0,0,0,.2.11,1,1,0,0,0,.32,0c.37,0,.59-.09.65-.28h.6v0a.4.4,0,0,1,0,.15.44.44,0,0,1-.1.17.74.74,0,0,1-.21.17,1.09,1.09,0,0,1-.35.12,2,2,0,0,1-.51,0Z" transform="translate(-1.49 -3.82)"></path><path class="cls-1" d="M9.87,10.09H9.32V8.46h.55Z" transform="translate(-1.49 -3.82)"></path><path class="cls-1" d="M12.57,10.09H12l-.15-.29H10.71l-.16.29H10l.87-1.61h.82l.87,1.61ZM10.9,9.43h.78l-.3-.59H11.2l-.31.59h0Z" transform="translate(-1.49 -3.82)"></path><path class="cls-1" d="M13.27,8.46V9.69H14.5v.4H12.71V8.46Z" transform="translate(-1.49 -3.82)"></path><path class="cls-1" d="M2.11,11.63v.55H1.56V10.54H2.89c.56,0,.83.18.83.53v0c0,.35-.27.53-.83.53Zm0-.36h.77c.17,0,.26-.06.26-.18h0c0-.12-.09-.18-.26-.18H2.11Z" transform="translate(-1.49 -3.82)"></path><path class="cls-1" d="M4.47,12.17H3.91V10.54h.56v1.63Z" transform="translate(-1.49 -3.82)"></path><path class="cls-1" d="M5.3,10.54v1.23H6.54v.41H4.75V10.54Z" transform="translate(-1.49 -3.82)"></path><path class="cls-1" d="M11.81,12.16l-.73-1.62h.61l.45,1.11.32-.84h.71l.35.81L14,10.54h.55l-.72,1.62h-.55l-.38-1h-.09l-.35,1Z" transform="translate(-1.49 -3.82)"></path><path class="cls-1" d="M11,11.77v.41H6.82V10.54h.51v1.23Z" transform="translate(-1.49 -3.82)"></path><path class="cls-1" d="M10.49,11a.11.11,0,0,1,.11.12.12.12,0,0,1-.11.12H8a.12.12,0,0,1-.11-.12A.11.11,0,0,1,8,11h2.47m0-.42H8a.52.52,0,0,0-.49.54h0a.52.52,0,0,0,.49.54h2.47a.52.52,0,0,0,.5-.54h0a.52.52,0,0,0-.5-.54Z" transform="translate(-1.49 -3.82)"></path></g></svg>