<?xml version="1.0" encoding="utf-8"?>
<svg version="1.1" id="Layer_1" xmlns="http://www.w3.org/2000/svg" x="0px" y="0px"
  viewBox="0 0 180 50" style="enable-background:new 0 0 180 50;" xml:space="preserve">
<style type="text/css">
  .st0{fill:#DB0032;}
  .st1{fill:#FFFFFF;}
</style>
<g>
  <g>
    <path class="st0" d="M37.86,4.94c-4.74-0.85-9.39,1.39-12.3,5.39c-2.9-4-7.56-6.24-12.3-5.39C6.37,6.16,1.91,13.45,3.29,21.22
      c0.22,1.28,0.61,2.47,1.15,3.59c5.27,11.09,20.23,19.93,21.1,20.42l0.02,0.01l0.02-0.01c0.87-0.49,15.84-9.33,21.11-20.42
      c0.54-1.12,0.92-2.32,1.15-3.59C49.22,13.45,44.76,6.16,37.86,4.94"/>
    <path class="st0" d="M50.33,32.82v-0.96h2.08V16.87h-2.08v-0.91h4.93c0.79,0,1.58-0.04,2.36-0.12c0.78-0.09,1.55-0.2,2.31-0.37
      h0.61v4.16h0.28c0.74-1.45,1.57-2.51,2.47-3.17c0.91-0.66,1.99-0.99,3.24-0.99c1.27,0,2.27,0.36,3,1.08
      c0.73,0.72,1.1,1.7,1.1,2.94c0,1.19-0.37,2.13-1.09,2.83c-0.73,0.7-1.69,1.05-2.9,1.05c-1.06,0-1.93-0.29-2.63-0.86
      c-0.7-0.56-1.05-1.27-1.05-2.11v-0.49c0-0.3-0.03-0.52-0.1-0.65c-0.06-0.14-0.16-0.2-0.3-0.2c-0.42,0-0.85,0.67-1.27,1.99
      c-0.44,1.32-0.65,2.76-0.65,4.32v6.46h2.75v0.96H50.33z"/>
    <path class="st0" d="M90.68,28.39l0.64,0.47c-0.77,1.5-1.92,2.65-3.45,3.44c-1.54,0.8-3.38,1.2-5.55,1.2
      c-3.04,0-5.47-0.83-7.29-2.49c-1.82-1.66-2.74-3.84-2.74-6.54c0-2.73,0.92-4.91,2.76-6.54c1.84-1.64,4.31-2.45,7.42-2.45
      c2.9,0,5.12,0.49,6.66,1.48c1.55,0.99,2.33,2.39,2.33,4.22c0,1.22-0.35,2.17-1.07,2.88c-0.71,0.71-1.69,1.06-2.92,1.06
      c-1.12,0-2.02-0.32-2.68-0.97c-0.67-0.64-0.99-1.51-0.99-2.6c0-0.7,0.11-1.25,0.34-1.68c0.24-0.44,0.62-0.82,1.15-1.14
      c0.13-0.08,0.31-0.19,0.54-0.32c0.58-0.31,0.87-0.65,0.87-1.01c0-0.29-0.16-0.53-0.49-0.72c-0.34-0.18-0.77-0.27-1.31-0.27
      c-1.29,0-2.23,0.59-2.81,1.76c-0.58,1.17-0.87,3.09-0.87,5.73c0,3.12,0.32,5.25,0.94,6.39C82.78,31.42,83.86,32,85.4,32
      c0.92,0,1.81-0.3,2.69-0.9C88.96,30.5,89.82,29.6,90.68,28.39z"/>
    <path class="st0" d="M92.99,32.82v-0.96h2.04V8.95h-2.04V8.06h4.94c0.79,0,1.57-0.04,2.35-0.13c0.79-0.09,1.56-0.21,2.31-0.37
      h0.64v10.7h0.35c0.76-0.96,1.6-1.67,2.51-2.11c0.91-0.44,1.97-0.66,3.16-0.66c1.91,0,3.26,0.49,4.1,1.47
      c0.83,0.98,1.25,2.69,1.25,5.13v9.77h2v0.96h-11.28v-0.96h1.1v-11.5c0-0.63-0.09-1.09-0.28-1.4c-0.19-0.3-0.47-0.45-0.87-0.45
      c-0.67,0-1.17,0.37-1.53,1.12c-0.35,0.75-0.53,1.84-0.53,3.27v8.95h1.1v0.96H92.99z"/>
    <path class="st0" d="M119.07,32.82v-0.96h2.32V16.87h-2.08v-0.91h5.04c0.79,0,1.57-0.04,2.37-0.12c0.78-0.09,1.55-0.2,2.3-0.37
      h0.61v16.37h2.15v0.96H119.07z"/>
    <path class="st0" d="M120.95,10.58c0-1.06,0.38-1.89,1.15-2.46c0.77-0.57,1.86-0.85,3.28-0.85c1.43,0,2.52,0.28,3.28,0.85
      c0.76,0.57,1.15,1.39,1.15,2.46c0,1.07-0.38,1.89-1.15,2.46c-0.76,0.58-1.85,0.86-3.28,0.86c-1.42,0-2.51-0.28-3.28-0.86
      C121.34,12.48,120.95,11.65,120.95,10.58z"/>
    <path class="st0" d="M153.39,25.27l-11.92,0.02v2.11c0,1.57,0.34,2.75,1.03,3.56c0.68,0.81,1.69,1.21,2.99,1.21
      c1.35,0,2.56-0.31,3.65-0.92c1.09-0.61,2.1-1.57,3.02-2.86l0.68,0.47c-0.87,1.55-2.11,2.7-3.71,3.48
      c-1.59,0.77-3.55,1.16-5.85,1.16c-3.24,0-5.83-0.83-7.77-2.49c-1.93-1.66-2.91-3.84-2.91-6.54c0-2.66,0.96-4.82,2.89-6.48
      c1.92-1.67,4.44-2.5,7.56-2.5c3.29,0,5.82,0.84,7.61,2.54C152.45,19.72,153.36,22.13,153.39,25.27z M145.04,24.47v-5.82
      c0-0.8-0.14-1.38-0.44-1.76c-0.29-0.37-0.74-0.56-1.35-0.56c-0.61,0-1.05,0.19-1.34,0.56c-0.29,0.37-0.43,0.96-0.43,1.76v5.82
      H145.04z"/>
    <path class="st0" d="M159.68,32.17l-2.94,1.29h-0.87l-0.27-6.43h0.89c0.89,1.69,2.09,3.05,3.59,4.06
      c1.51,1.01,3.05,1.52,4.61,1.52c0.87,0,1.52-0.16,1.98-0.47c0.46-0.31,0.7-0.75,0.7-1.32c0-1.03-1.72-2.05-5.16-3.07
      c-0.5-0.14-0.89-0.26-1.15-0.34c-1.62-0.5-2.92-1.31-3.87-2.43c-0.95-1.12-1.43-2.38-1.43-3.79c0-1.66,0.6-3.03,1.82-4.1
      c1.21-1.06,2.77-1.6,4.67-1.6c0.82,0,1.65,0.08,2.48,0.24c0.83,0.16,1.67,0.41,2.51,0.75l2.93-0.99h0.71l0.08,5.59h-0.69
      c-0.76-1.45-1.82-2.62-3.16-3.5c-1.34-0.87-2.71-1.31-4.09-1.31c-0.69,0-1.23,0.14-1.62,0.41c-0.39,0.28-0.58,0.66-0.58,1.16
      c0,1,1.3,1.89,3.91,2.67c0.16,0.05,0.28,0.08,0.36,0.1c2.49,0.74,4.25,1.63,5.29,2.65c1.05,1.02,1.57,2.34,1.57,3.96
      c0,2-0.6,3.54-1.81,4.63c-1.21,1.08-2.9,1.62-5.1,1.62c-0.95,0-1.85-0.1-2.68-0.3C161.54,32.96,160.65,32.64,159.68,32.17z"/>
    <path class="st0" d="M174.54,11.62c1.36,0,2.42,1.06,2.42,2.37c0,1.35-1.06,2.39-2.44,2.39c-1.36,0-2.45-1.04-2.45-2.39
      c0-1.31,1.09-2.37,2.45-2.37H174.54z M174.51,12.1c-1.04,0-1.82,0.86-1.82,1.9c0,1.06,0.78,1.9,1.85,1.9
      c1.04,0.02,1.81-0.84,1.81-1.9c0-1.04-0.76-1.9-1.83-1.9H174.51z M174.15,15.22h-0.55v-2.36c0.22-0.04,0.52-0.08,0.91-0.08
      c0.45,0,0.65,0.07,0.83,0.19c0.12,0.1,0.23,0.29,0.23,0.5c0,0.28-0.2,0.48-0.49,0.57v0.03c0.24,0.07,0.36,0.26,0.43,0.58
      c0.08,0.37,0.12,0.51,0.18,0.58h-0.59c-0.07-0.09-0.12-0.29-0.19-0.56c-0.04-0.26-0.18-0.37-0.49-0.37h-0.26V15.22z M174.16,13.89
      h0.27c0.3,0,0.55-0.1,0.55-0.34c0-0.22-0.15-0.37-0.5-0.37c-0.15,0-0.24,0.01-0.31,0.03V13.89z"/>
  </g>
  <path class="st1" d="M42.94,30.66c-0.25,0.15-0.52,0.22-0.83,0.22c-0.3,0-0.52-0.07-0.64-0.24c-0.12-0.16-0.18-0.45-0.18-0.88v-9.5
    c0-1.22-0.1-2.12-0.3-2.7c-0.2-0.59-0.53-1.09-1.01-1.53c-0.69-0.64-1.78-1.12-3.28-1.42c-1.49-0.3-3.51-0.45-6.08-0.45
    c-3.47,0-5.93,0.32-7.4,0.96c-1.47,0.64-2.2,1.71-2.2,3.18c0,1.04,0.37,1.81,1.1,2.34c0.73,0.54,1.82,0.8,3.25,0.8
    c1.54,0,2.72-0.25,3.51-0.75c0.79-0.49,1.19-1.23,1.19-2.2c0-0.95-0.34-1.73-1-2.36c-0.19-0.18-0.29-0.3-0.29-0.38
    c0-0.14,0.14-0.28,0.44-0.4c0.3-0.13,0.64-0.2,1.03-0.2c0.79,0,1.37,0.15,1.73,0.42c0.37,0.29,0.55,0.73,0.55,1.34v5.65h-2.32
    c-3.31,0-5.94,0.56-7.87,1.67c-1.93,1.12-2.9,2.63-2.9,4.52c0,1.56,0.55,2.81,1.66,3.75c1.1,0.94,2.57,1.41,4.43,1.41
    c1.54,0,2.93-0.24,4.17-0.73c1.24-0.5,2.32-1.23,3.27-2.21c0.45,0.98,1.04,1.71,1.8,2.21c0.75,0.49,1.65,0.73,2.69,0.73
    c1.13,0,2.23-0.24,3.29-0.71C41.52,32.4,42.26,31.54,42.94,30.66z M32.59,27.56c0,1.33-0.16,2.29-0.48,2.9
    c-0.32,0.61-0.82,0.91-1.51,0.91c-0.6,0-1.04-0.26-1.32-0.8c-0.27-0.54-0.41-1.36-0.41-2.49c0-1.77,0.23-2.98,0.7-3.62
    c0.47-0.65,1.3-0.97,2.48-0.97h0.53V27.56z"/>
</g>
</svg>
